<svg width="233" height="74" viewBox="0 0 233 74" fill="none" xmlns="http://www.w3.org/2000/svg">
<g id="logo" clip-path="url(#clip0_1_2)">
<path id="Vector" d="M0.446644 29.9207L28.1387 0L37.2949 10.2096L15.707 26.7535L36.811 43.4465L9.04457 73.4046L0 63.344L21.4762 46.7255L0.446644 29.9207Z" fill="#00C6DB"/>
<path id="Vector_2" d="M72.6171 8.64661C72.6171 14.7574 68.7089 22.9176 58.7711 22.9176H56.9473L55.2351 30.8915H47.2328L53.7091 0.374621H63.2003C69.0067 0.33736 72.6171 3.24373 72.6171 8.64661ZM59.7388 16.1361C63.0886 16.1361 64.5402 12.1864 64.5402 10.0253C64.5402 8.19948 63.6097 7.1189 61.972 7.1189H60.2599L58.3617 16.1361H59.7388Z" fill="#545556"/>
<path id="Vector_3" d="M91.4879 30.8523H83.6343L83.6716 26.1946H76.5997L74.627 30.8523H66.1407L80.2473 0.335358H90.2968L91.4879 30.8523ZM78.9818 20.5682H83.6716L83.746 9.3153H83.7088L78.9818 20.5682Z" fill="#545556"/>
<path id="Vector_4" d="M117.84 0.335358H125.619L120.408 30.8523H112.89L115.383 16.2831L108.311 30.8523H105.148L104.329 16.2831L100.57 30.8523H92.9767L100.681 0.335358H108.125L109.577 16.544L117.84 0.335358Z" fill="#545556"/>
<path id="Vector_5" d="M146.649 7.22868H136.673L135.631 12.1844H144.118L142.778 18.5933H134.254L133.138 23.9589H143.336L141.884 30.8523H123.721L130.197 0.335358H148.063L146.649 7.22868Z" fill="#545556"/>
<path id="Vector_6" d="M44.2551 72.0632L46.5255 65.3934C48.1632 66.2132 50.8059 66.8839 52.853 66.8839C55.049 66.8839 56.389 65.8778 56.389 64.3128C56.389 62.8596 55.4212 61.9281 53.858 60.6985C50.8803 58.9472 48.5727 56.6743 48.5727 52.8364C48.5727 46.6138 53.4113 42.1051 60.3343 42.1051C63.312 42.1051 66.1407 42.7013 68.1134 43.7074L65.8057 50.4517C63.9447 49.4829 62.1954 49.073 60.4832 49.073C58.2872 49.073 57.2078 50.1908 57.2078 51.7185C57.2078 53.0227 58.1383 54.066 59.7388 55.2584C62.7909 56.9724 64.9124 59.5434 64.9124 63.0459C64.9124 69.4176 59.9993 73.7772 53.1508 73.7772C49.6521 73.8144 46.7861 73.2183 44.2551 72.0632Z" fill="#545556"/>
<path id="Vector_7" d="M67.369 63.2695C67.369 54.2523 72.766 42.1797 83.8204 42.1797C86.2026 42.1797 88.6219 42.7758 90.669 44.0055L87.2819 50.8243C85.942 49.9673 84.6765 49.5574 83.0016 49.5574C78.1257 49.5574 75.7436 58.0529 75.7436 62.1517C75.7436 65.058 77.0835 66.4367 79.2423 66.4367C81.0289 66.4367 82.8155 65.9523 84.3788 65.0953L84.8998 71.9886C82.8899 73.0692 80.0612 73.8144 77.6418 73.8144C71.2027 73.7771 67.369 69.902 67.369 63.2695Z" fill="#545556"/>
<path id="Vector_8" d="M107.977 42.7013H116.091L109.651 73.2182H101.537L103.994 61.5927H97.927L95.4332 73.2182H87.3192L93.7955 42.7013H101.91L99.3786 54.5131H105.483L107.977 42.7013Z" fill="#545556"/>
<path id="Vector_9" d="M115.383 63.344L119.775 42.6641H127.741L123.386 63.2695C123.051 64.909 123.162 66.7721 125.358 66.7721C127.108 66.7721 128.411 65.6542 128.894 63.2695L133.286 42.7013H141.214L136.86 63.3813C135.482 69.7902 130.681 73.8144 124.019 73.8144C116.388 73.7772 114.23 68.7469 115.383 63.344Z" fill="#545556"/>
<path id="Vector_10" d="M157.405 62.4497L159.973 73.2182H151.599L149.85 64.201H148.286L146.388 73.2182H138.386L144.862 42.7013H154.428C160.308 42.7013 163.919 45.5332 163.919 50.5634C163.956 54.7739 162.021 59.8042 157.405 62.4497ZM151.413 49.4456L149.701 57.5685H151.078C154.39 57.5685 155.842 54.215 155.842 52.2029C155.842 50.5634 154.911 49.4456 153.199 49.4456H151.413Z" fill="#545556"/>
<path id="Vector_11" d="M181.375 62.4497L183.943 73.2182H175.569L173.819 64.201H172.256L170.358 73.2182H162.318L168.795 42.7013H178.36C184.241 42.7013 187.852 45.5332 187.852 50.5634C187.889 54.7739 185.991 59.8042 181.375 62.4497ZM175.346 49.4456L173.633 57.5685H175.011C178.323 57.5685 179.775 54.215 179.775 52.2029C179.775 50.5634 178.844 49.4456 177.132 49.4456H175.346Z" fill="#545556"/>
<path id="Vector_12" d="M209.179 49.5574H199.204L198.162 54.5131H206.648L205.308 60.9221H196.785L195.668 66.2877H205.866L204.415 73.181H186.251L192.727 42.6641H210.593L209.179 49.5574Z" fill="#545556"/>
<path id="Vector_13" d="M226.486 62.4497L229.055 73.2182H220.68L218.931 64.201H217.367L215.469 73.2182H207.467L213.943 42.7013H223.509C229.39 42.7013 233 45.5332 233 50.5634C233 54.7739 231.102 59.8042 226.486 62.4497ZM220.457 49.4456L218.745 57.5685H220.122C223.434 57.5685 224.886 54.215 224.886 52.2029C224.886 50.5634 223.955 49.4456 222.243 49.4456H220.457Z" fill="#545556"/>
</g>
<defs>
<clipPath id="clip0_1_2">
<rect width="233" height="74" fill="white"/>
</clipPath>
</defs>
</svg>
